<svg width="1024" height="1064" viewBox="0 0 1024 1064" fill="none" xmlns="http://www.w3.org/2000/svg">
<g clip-path="url(#clip0_7_2)">
<rect width="1024" height="1064" rx="100" fill="white"/>
<path d="M593.78 457.42V484.78H773.52V457.42H593.78ZM593.78 395.86V423.22H773.52V395.86H593.78ZM548.56 359H821.02V521.64H548.56V359ZM735.9 497.32C744.26 508.72 754.9 519.36 767.82 529.24C780.993 539.12 795.687 547.86 811.9 555.46C828.367 562.807 845.467 568.633 863.2 572.94C859.907 575.98 856.36 579.78 852.56 584.34C848.76 588.9 845.087 593.713 841.54 598.78C837.993 603.593 835.08 608.027 832.8 612.08C814.307 605.747 796.573 597.767 779.6 588.14C762.88 578.26 747.427 566.86 733.24 553.94C719.307 540.767 707.4 526.58 697.52 511.38L735.9 497.32ZM632.16 497.32L672.06 512.9C661.927 527.34 649.64 541.02 635.2 553.94C621.013 566.86 605.433 578.387 588.46 588.52C571.74 598.653 554.26 606.887 536.02 613.22C533.993 609.42 531.207 605.24 527.66 600.68C524.113 596.12 520.44 591.56 516.64 587C512.84 582.44 509.293 578.767 506 575.98C522.973 570.913 539.44 564.453 555.4 556.6C571.613 548.493 586.307 539.373 599.48 529.24C612.907 519.107 623.8 508.467 632.16 497.32ZM605.18 566.86H651.92V593.08C651.92 602.2 650.907 611.953 648.88 622.34C646.853 632.473 642.927 642.607 637.1 652.74C631.273 662.873 622.533 672.5 610.88 681.62C599.48 690.74 584.153 698.72 564.9 705.56C563.127 701.76 560.34 697.58 556.54 693.02C552.993 688.46 549.193 683.9 545.14 679.34C541.087 675.033 537.287 671.36 533.74 668.32C549.7 663.253 562.367 657.553 571.74 651.22C581.367 644.887 588.46 638.3 593.02 631.46C597.833 624.62 601 617.78 602.52 610.94C604.293 603.847 605.18 597.26 605.18 591.18V566.86ZM660.28 378H706.26V503.02H660.28V378ZM720.7 567.62H768.2V701.76H720.7V567.62Z" fill="#111111"/>
<path d="M341.85 490.1H428.3V446.78H251.98V490.1H341.85Z" fill="#E5484D" fill-opacity="0.2"/>
<path d="M341.85 490.1H428.3V446.78H251.98V490.1H341.85Z" fill="#111111"/>
<path d="M428.3 534.94H251.98V578.26H428.3V534.94Z" fill="#E5484D" fill-opacity="0.2"/>
<path d="M428.3 534.94H251.98V578.26H428.3V534.94Z" fill="#111111"/>
<path d="M428.3 622.72H251.98V667.18H341.85H428.3V622.72Z" fill="#E5484D" fill-opacity="0.2"/>
<path d="M428.3 622.72H251.98V667.18H341.85H428.3V622.72Z" fill="#111111"/>
<path fill-rule="evenodd" clip-rule="evenodd" d="M251.98 534.94V490.1V446.78V403.46H428.3V446.78V490.1V534.94V578.26V622.72V667.18V691.12H476.94V359H206V691.12H251.98V667.18H238.68V622.72H251.98V578.26V534.94Z" fill="#E5484D" fill-opacity="0.2"/>
<path fill-rule="evenodd" clip-rule="evenodd" d="M251.98 534.94V490.1V446.78V403.46H428.3V446.78V490.1V534.94V578.26V622.72V667.18V691.12H476.94V359H206V691.12H251.98V667.18H238.68V622.72H251.98V578.26V534.94Z" fill="#111111"/>
<path d="M238.68 622.72V667.18H251.98V622.72H238.68Z" fill="#111111"/>
<rect opacity="0.85" x="266.42" y="672.1" width="150" height="14" rx="4" fill="#E5484D"/>
</g>
<defs>
<clipPath id="clip0_7_2">
<rect width="1024" height="1064" rx="100" fill="white"/>
</clipPath>
</defs>
</svg>
